<svg width="36" height="34" viewBox="0 0 36 34" fill="none" xmlns="http://www.w3.org/2000/svg">
<path d="M18 26.732C20.1875 26.732 22.0469 25.9387 23.5781 24.3521C25.1094 22.7655 25.875 20.8389 25.875 18.5723C25.875 16.3058 25.1094 14.3792 23.5781 12.7926C22.0469 11.206 20.1875 10.4127 18 10.4127C15.8125 10.4127 13.9531 11.206 12.4219 12.7926C10.8906 14.3792 10.125 16.3058 10.125 18.5723C10.125 20.8389 10.8906 22.7655 12.4219 24.3521C13.9531 25.9387 15.8125 26.732 18 26.732ZM18 23.1055C16.775 23.1055 15.7396 22.6673 14.8938 21.7908C14.0479 20.9144 13.625 19.8416 13.625 18.5723C13.625 17.303 14.0479 16.2302 14.8938 15.3538C15.7396 14.4774 16.775 14.0392 18 14.0392C19.225 14.0392 20.2604 14.4774 21.1063 15.3538C21.9521 16.2302 22.375 17.303 22.375 18.5723C22.375 19.8416 21.9521 20.9144 21.1063 21.7908C20.2604 22.6673 19.225 23.1055 18 23.1055ZM0.5 33.0783V4.0663H9.5125L12.75 0.439789H23.25L26.4875 4.0663H35.5V33.0783H0.5ZM4 29.4518H32V7.6928H24.9125L21.7188 4.0663H14.2812L11.0875 7.6928H4V29.4518Z" fill="#145062"/>
</svg>
