<svg width="28" height="28" viewBox="0 0 28 28" fill="none" xmlns="http://www.w3.org/2000/svg">
<path fill-rule="evenodd" clip-rule="evenodd" d="M20.0551 18.0579L27.5868 25.5897C27.8515 25.8546 28.0001 26.2138 28 26.5884C27.9999 26.9629 27.851 27.322 27.5861 27.5867C27.3211 27.8515 26.9619 28.0001 26.5874 28C26.2129 27.9999 25.8538 27.851 25.5891 27.586L18.0574 20.0542C15.8059 21.7981 12.9746 22.6188 10.1395 22.3493C7.30447 22.0797 4.67855 20.7402 2.79599 18.6033C0.913425 16.4664 -0.0843672 13.6925 0.0055946 10.846C0.0955564 7.99946 1.26651 5.29413 3.28026 3.28034C5.294 1.26655 7.99926 0.0955587 10.8457 0.00559474C13.6921 -0.0843693 16.4659 0.913448 18.6028 2.79606C20.7397 4.67867 22.0792 7.30465 22.3487 10.1398C22.6182 12.975 21.7976 15.8063 20.0537 18.0579H20.0551ZM11.2005 19.5992C13.4282 19.5992 15.5647 18.7142 17.1399 17.139C18.7152 15.5637 19.6001 13.4272 19.6001 11.1994C19.6001 8.97163 18.7152 6.8351 17.1399 5.25983C15.5647 3.68456 13.4282 2.79958 11.2005 2.79958C8.97281 2.79958 6.83633 3.68456 5.2611 5.25983C3.68587 6.8351 2.80091 8.97163 2.80091 11.1994C2.80091 13.4272 3.68587 15.5637 5.2611 17.139C6.83633 18.7142 8.97281 19.5992 11.2005 19.5992V19.5992Z" fill="#3C403D"/>
</svg>
