<svg xmlns="http://www.w3.org/2000/svg" width="24" height="24" viewBox="0 0 24 24" fill="none">
<g id="local_dining">
<mask id="mask0_2_2372" style="mask-type:alpha" maskUnits="userSpaceOnUse" x="0" y="0" width="24" height="24" fill="#33cc9f">
<rect id="Bounding box" width="24" height="24" fill="#33cc9f"/>
</mask>
<g mask="url(#mask0_2_2372)">
<g id="local_dining_2">
<path d="M4.37498 21L2.97498 19.6L13.225 9.35C12.925 8.65 12.8833 7.85833 13.1 6.975C13.3166 6.09167 13.7916 5.3 14.525 4.6C15.4083 3.71667 16.3916 3.2 17.475 3.05C18.5583 2.9 19.4416 3.16667 20.125 3.85C20.8083 4.53333 21.075 5.41667 20.925 6.5C20.775 7.58333 20.2583 8.56667 19.375 9.45C18.675 10.1833 17.8833 10.6583 17 10.875C16.1166 11.0917 15.325 11.05 14.625 10.75L13.375 12L20.975 19.6L19.575 21L11.975 13.45L4.37498 21ZM7.32498 12.45L4.32498 9.45C3.42498 8.55 2.97498 7.475 2.97498 6.225C2.97498 4.975 3.42498 3.9 4.32498 3L10.525 9.25L7.32498 12.45Z" fill="#33cc9f"/>
<path d="M4.37498 21L2.97498 19.6L13.225 9.35C12.925 8.65 12.8833 7.85833 13.1 6.975C13.3166 6.09167 13.7916 5.3 14.525 4.6C15.4083 3.71667 16.3916 3.2 17.475 3.05C18.5583 2.9 19.4416 3.16667 20.125 3.85C20.8083 4.53333 21.075 5.41667 20.925 6.5C20.775 7.58333 20.2583 8.56667 19.375 9.45C18.675 10.1833 17.8833 10.6583 17 10.875C16.1166 11.0917 15.325 11.05 14.625 10.75L13.375 12L20.975 19.6L19.575 21L11.975 13.45L4.37498 21ZM7.32498 12.45L4.32498 9.45C3.42498 8.55 2.97498 7.475 2.97498 6.225C2.97498 4.975 3.42498 3.9 4.32498 3L10.525 9.25L7.32498 12.45Z" fill="#33cc9f" fill-opacity="0.2"/>
<path d="M4.37498 21L2.97498 19.6L13.225 9.35C12.925 8.65 12.8833 7.85833 13.1 6.975C13.3166 6.09167 13.7916 5.3 14.525 4.6C15.4083 3.71667 16.3916 3.2 17.475 3.05C18.5583 2.9 19.4416 3.16667 20.125 3.85C20.8083 4.53333 21.075 5.41667 20.925 6.5C20.775 7.58333 20.2583 8.56667 19.375 9.45C18.675 10.1833 17.8833 10.6583 17 10.875C16.1166 11.0917 15.325 11.05 14.625 10.75L13.375 12L20.975 19.6L19.575 21L11.975 13.45L4.37498 21ZM7.32498 12.45L4.32498 9.45C3.42498 8.55 2.97498 7.475 2.97498 6.225C2.97498 4.975 3.42498 3.9 4.32498 3L10.525 9.25L7.32498 12.45Z" fill="#33cc9f" fill-opacity="0.2"/>
<path d="M4.37498 21L2.97498 19.6L13.225 9.35C12.925 8.65 12.8833 7.85833 13.1 6.975C13.3166 6.09167 13.7916 5.3 14.525 4.6C15.4083 3.71667 16.3916 3.2 17.475 3.05C18.5583 2.9 19.4416 3.16667 20.125 3.85C20.8083 4.53333 21.075 5.41667 20.925 6.5C20.775 7.58333 20.2583 8.56667 19.375 9.45C18.675 10.1833 17.8833 10.6583 17 10.875C16.1166 11.0917 15.325 11.05 14.625 10.75L13.375 12L20.975 19.6L19.575 21L11.975 13.45L4.37498 21ZM7.32498 12.45L4.32498 9.45C3.42498 8.55 2.97498 7.475 2.97498 6.225C2.97498 4.975 3.42498 3.9 4.32498 3L10.525 9.25L7.32498 12.45Z" fill="#33cc9f" fill-opacity="0.2"/>
</g>
</g>
</g>
</svg>