<svg width="149" height="27" viewBox="0 0 149 27" fill="none" xmlns="http://www.w3.org/2000/svg">
<rect width="24" height="24" transform="translate(0 1.5)" fill="#000F08"/>
<line x1="4" y1="9.5" x2="20" y2="9.5" stroke="white"/>
<line x1="4" y1="13.5" x2="20" y2="13.5" stroke="white"/>
<line x1="4" y1="17.5" x2="20" y2="17.5" stroke="white"/>
<path d="M32.36 20L36.698 7.04H38.93L43.268 20H41.603L37.544 7.976H38.048L34.025 20H32.36ZM34.448 16.967V15.464H41.18V16.967H34.448ZM48.6951 20.27C47.7891 20.27 47.0121 20.045 46.3641 19.595C45.7161 19.139 45.2151 18.524 44.8611 17.75C44.5131 16.976 44.3391 16.103 44.3391 15.131C44.3391 14.159 44.5131 13.286 44.8611 12.512C45.2151 11.738 45.7161 11.129 46.3641 10.685C47.0121 10.235 47.7861 10.01 48.6861 10.01C49.6041 10.01 50.3751 10.232 50.9991 10.676C51.6231 11.12 52.0941 11.729 52.4121 12.503C52.7361 13.277 52.8981 14.153 52.8981 15.131C52.8981 16.097 52.7361 16.97 52.4121 17.75C52.0941 18.524 51.6231 19.139 50.9991 19.595C50.3751 20.045 49.6071 20.27 48.6951 20.27ZM48.8931 18.803C49.5471 18.803 50.0841 18.647 50.5041 18.335C50.9241 18.017 51.2331 17.582 51.4311 17.03C51.6351 16.472 51.7371 15.839 51.7371 15.131C51.7371 14.411 51.6351 13.778 51.4311 13.232C51.2331 12.68 50.9271 12.251 50.5131 11.945C50.0991 11.633 49.5741 11.477 48.9381 11.477C48.2781 11.477 47.7321 11.639 47.3001 11.963C46.8741 12.287 46.5561 12.725 46.3461 13.277C46.1421 13.829 46.0401 14.447 46.0401 15.131C46.0401 15.821 46.1451 16.445 46.3551 17.003C46.5651 17.555 46.8801 17.993 47.3001 18.317C47.7261 18.641 48.2571 18.803 48.8931 18.803ZM51.7371 20V12.845H51.5571V7.04H53.1681V20H51.7371ZM59.5057 20.27C58.5997 20.27 57.8227 20.045 57.1747 19.595C56.5267 19.139 56.0257 18.524 55.6717 17.75C55.3237 16.976 55.1497 16.103 55.1497 15.131C55.1497 14.159 55.3237 13.286 55.6717 12.512C56.0257 11.738 56.5267 11.129 57.1747 10.685C57.8227 10.235 58.5967 10.01 59.4967 10.01C60.4147 10.01 61.1857 10.232 61.8097 10.676C62.4337 11.12 62.9047 11.729 63.2227 12.503C63.5467 13.277 63.7087 14.153 63.7087 15.131C63.7087 16.097 63.5467 16.97 63.2227 17.75C62.9047 18.524 62.4337 19.139 61.8097 19.595C61.1857 20.045 60.4177 20.27 59.5057 20.27ZM59.7037 18.803C60.3577 18.803 60.8947 18.647 61.3147 18.335C61.7347 18.017 62.0437 17.582 62.2417 17.03C62.4457 16.472 62.5477 15.839 62.5477 15.131C62.5477 14.411 62.4457 13.778 62.2417 13.232C62.0437 12.68 61.7377 12.251 61.3237 11.945C60.9097 11.633 60.3847 11.477 59.7487 11.477C59.0887 11.477 58.5427 11.639 58.1107 11.963C57.6847 12.287 57.3667 12.725 57.1567 13.277C56.9527 13.829 56.8507 14.447 56.8507 15.131C56.8507 15.821 56.9557 16.445 57.1657 17.003C57.3757 17.555 57.6907 17.993 58.1107 18.317C58.5367 18.641 59.0677 18.803 59.7037 18.803ZM62.5477 20V12.845H62.3677V7.04H63.9787V20H62.5477ZM77.0248 20V15.131C77.0248 14.669 76.9828 14.225 76.8988 13.799C76.8208 13.373 76.6798 12.992 76.4758 12.656C76.2778 12.314 76.0078 12.044 75.6658 11.846C75.3298 11.648 74.9038 11.549 74.3878 11.549C73.9858 11.549 73.6198 11.618 73.2898 11.756C72.9658 11.888 72.6868 12.092 72.4528 12.368C72.2188 12.644 72.0358 12.992 71.9038 13.412C71.7778 13.826 71.7148 14.315 71.7148 14.879L70.6618 14.555C70.6618 13.613 70.8298 12.806 71.1658 12.134C71.5078 11.456 71.9848 10.937 72.5968 10.577C73.2148 10.211 73.9408 10.028 74.7748 10.028C75.4048 10.028 75.9418 10.127 76.3858 10.325C76.8298 10.523 77.1988 10.787 77.4928 11.117C77.7868 11.441 78.0178 11.807 78.1858 12.215C78.3538 12.617 78.4708 13.028 78.5368 13.448C78.6088 13.862 78.6448 14.255 78.6448 14.627V20H77.0248ZM70.0948 20V10.28H71.5348V12.881H71.7148V20H70.0948ZM85.1087 20.27C84.1547 20.27 83.3207 20.06 82.6067 19.64C81.8987 19.214 81.3467 18.623 80.9507 17.867C80.5547 17.105 80.3567 16.217 80.3567 15.203C80.3567 14.141 80.5517 13.223 80.9417 12.449C81.3317 11.669 81.8747 11.069 82.5707 10.649C83.2727 10.223 84.0947 10.01 85.0367 10.01C86.0147 10.01 86.8457 10.235 87.5297 10.685C88.2197 11.135 88.7357 11.777 89.0777 12.611C89.4257 13.445 89.5757 14.438 89.5277 15.59H87.9077V15.014C87.8897 13.82 87.6467 12.929 87.1787 12.341C86.7107 11.747 86.0147 11.45 85.0907 11.45C84.1007 11.45 83.3477 11.768 82.8317 12.404C82.3157 13.04 82.0577 13.952 82.0577 15.14C82.0577 16.286 82.3157 17.174 82.8317 17.804C83.3477 18.434 84.0827 18.749 85.0367 18.749C85.6787 18.749 86.2367 18.602 86.7107 18.308C87.1847 18.014 87.5567 17.591 87.8267 17.039L89.3657 17.57C88.9877 18.428 88.4177 19.094 87.6557 19.568C86.8997 20.036 86.0507 20.27 85.1087 20.27ZM81.5177 15.59V14.303H88.6997V15.59H81.5177ZM93.2499 20L90.2799 10.271L91.8729 10.28L94.0419 17.39L96.2289 10.28H97.6419L99.8199 17.39L101.998 10.28H103.582L100.612 20H99.2799L96.9309 12.611L94.5819 20H93.2499ZM120.43 20L120.439 13.781C120.439 13.055 120.244 12.488 119.854 12.08C119.47 11.666 118.969 11.459 118.351 11.459C117.991 11.459 117.649 11.543 117.325 11.711C117.001 11.873 116.737 12.131 116.533 12.485C116.329 12.833 116.227 13.28 116.227 13.826L115.381 13.484C115.369 12.794 115.51 12.191 115.804 11.675C116.104 11.153 116.512 10.748 117.028 10.46C117.544 10.172 118.126 10.028 118.774 10.028C119.788 10.028 120.586 10.337 121.168 10.955C121.75 11.567 122.041 12.392 122.041 13.43L122.032 20H120.43ZM108.802 20V10.28H110.233V12.881H110.413V20H108.802ZM114.625 20L114.634 13.844C114.634 13.1 114.442 12.518 114.058 12.098C113.674 11.672 113.164 11.459 112.528 11.459C111.898 11.459 111.388 11.675 110.998 12.107C110.608 12.539 110.413 13.112 110.413 13.826L109.567 13.322C109.567 12.692 109.717 12.128 110.017 11.63C110.317 11.132 110.725 10.742 111.241 10.46C111.757 10.172 112.342 10.028 112.996 10.028C113.65 10.028 114.22 10.166 114.706 10.442C115.192 10.718 115.567 11.114 115.831 11.63C116.095 12.14 116.227 12.749 116.227 13.457L116.218 20H114.625ZM128.509 20.27C127.555 20.27 126.721 20.06 126.007 19.64C125.299 19.214 124.747 18.623 124.351 17.867C123.955 17.105 123.757 16.217 123.757 15.203C123.757 14.141 123.952 13.223 124.342 12.449C124.732 11.669 125.275 11.069 125.971 10.649C126.673 10.223 127.495 10.01 128.437 10.01C129.415 10.01 130.246 10.235 130.93 10.685C131.62 11.135 132.136 11.777 132.478 12.611C132.826 13.445 132.976 14.438 132.928 15.59H131.308V15.014C131.29 13.82 131.047 12.929 130.579 12.341C130.111 11.747 129.415 11.45 128.491 11.45C127.501 11.45 126.748 11.768 126.232 12.404C125.716 13.04 125.458 13.952 125.458 15.14C125.458 16.286 125.716 17.174 126.232 17.804C126.748 18.434 127.483 18.749 128.437 18.749C129.079 18.749 129.637 18.602 130.111 18.308C130.585 18.014 130.957 17.591 131.227 17.039L132.766 17.57C132.388 18.428 131.818 19.094 131.056 19.568C130.3 20.036 129.451 20.27 128.509 20.27ZM124.918 15.59V14.303H132.1V15.59H124.918ZM137.519 20.27C136.793 20.27 136.184 20.138 135.692 19.874C135.206 19.604 134.837 19.25 134.585 18.812C134.339 18.374 134.216 17.894 134.216 17.372C134.216 16.862 134.312 16.421 134.504 16.049C134.702 15.671 134.978 15.359 135.332 15.113C135.686 14.861 136.109 14.663 136.601 14.519C137.063 14.393 137.579 14.285 138.149 14.195C138.725 14.099 139.307 14.012 139.895 13.934C140.483 13.856 141.032 13.781 141.542 13.709L140.966 14.042C140.984 13.178 140.81 12.539 140.444 12.125C140.084 11.711 139.46 11.504 138.572 11.504C137.984 11.504 137.468 11.639 137.024 11.909C136.586 12.173 136.277 12.605 136.097 13.205L134.576 12.746C134.81 11.894 135.263 11.225 135.935 10.739C136.607 10.253 137.492 10.01 138.59 10.01C139.472 10.01 140.228 10.169 140.858 10.487C141.494 10.799 141.95 11.273 142.226 11.909C142.364 12.209 142.451 12.536 142.487 12.89C142.523 13.238 142.541 13.604 142.541 13.988V20H141.119V17.669L141.452 17.885C141.086 18.671 140.573 19.265 139.913 19.667C139.259 20.069 138.461 20.27 137.519 20.27ZM137.762 18.929C138.338 18.929 138.836 18.827 139.256 18.623C139.682 18.413 140.024 18.14 140.282 17.804C140.54 17.462 140.708 17.09 140.786 16.688C140.876 16.388 140.924 16.055 140.93 15.689C140.942 15.317 140.948 15.032 140.948 14.834L141.506 15.077C140.984 15.149 140.471 15.218 139.967 15.284C139.463 15.35 138.986 15.422 138.536 15.5C138.086 15.572 137.681 15.659 137.321 15.761C137.057 15.845 136.808 15.953 136.574 16.085C136.346 16.217 136.16 16.388 136.016 16.598C135.878 16.802 135.809 17.057 135.809 17.363C135.809 17.627 135.875 17.879 136.007 18.119C136.145 18.359 136.355 18.554 136.637 18.704C136.925 18.854 137.3 18.929 137.762 18.929ZM145.061 20V6.77H146.663V20H145.061Z" fill="#000F08"/>
</svg>
